<?xml version="1.0"?>
<!-- Generated by SVGo -->
<svg width="500" height="400"
     xmlns="http://www.w3.org/2000/svg"
     xmlns:xlink="http://www.w3.org/1999/xlink">
<title>Nearest Neighbor Brute Force</title>
<circle cx="263" cy="197" r="12" style="fill:rgb(127,0,0)"/>
<circle cx="298" cy="8" r="13" style="fill:rgb(127,0,0)"/>
<circle cx="91" cy="5" r="11" style="fill:rgb(127,0,0)"/>
<circle cx="324" cy="228" r="18" style="fill:rgb(0,0,127)"/>
<circle cx="483" cy="52" r="16" style="fill:rgb(0,0,127)"/>
<circle cx="230" cy="147" r="18" style="fill:rgb(0,0,127)"/>
<circle cx="279" cy="107" r="11" style="fill:rgb(127,0,0)"/>
<circle cx="418" cy="229" r="11" style="fill:rgb(0,0,127)"/>
<circle cx="20" cy="235" r="14" style="fill:rgb(127,0,0)"/>
<circle cx="328" cy="355" r="19" style="fill:rgb(127,0,0)"/>
<circle cx="450" cy="94" r="20" style="fill:rgb(0,0,127)"/>
<circle cx="41" cy="160" r="20" style="fill:rgb(127,0,0)"/>
<circle cx="323" cy="189" r="17" style="fill:rgb(127,0,0)"/>
<circle cx="301" cy="168" r="22" style="fill:rgb(127,0,0)"/>
<circle cx="375" cy="311" r="20" style="fill:rgb(127,0,0)"/>
<circle cx="115" cy="164" r="21" style="fill:rgb(127,0,0)"/>
<circle cx="277" cy="5" r="17" style="fill:rgb(127,0,0)"/>
<circle cx="85" cy="241" r="20" style="fill:rgb(0,0,127)"/>
<circle cx="316" cy="85" r="15" style="fill:rgb(127,0,0)"/>
<circle cx="83" cy="303" r="16" style="fill:rgb(0,0,127)"/>
<circle cx="220" cy="138" r="17" style="fill:rgb(0,0,127)"/>
<circle cx="114" cy="188" r="21" style="fill:rgb(0,0,127)"/>
<circle cx="445" cy="383" r="12" style="fill:rgb(0,0,127)"/>
<circle cx="176" cy="186" r="11" style="fill:rgb(127,0,0)"/>
<circle cx="310" cy="113" r="11" style="fill:rgb(0,0,127)"/>
<circle cx="100" cy="171" r="17" style="fill:rgb(127,0,0)"/>
<circle cx="147" cy="249" r="16" style="fill:rgb(0,0,127)"/>
<circle cx="81" cy="200" r="20" style="fill:rgb(127,0,0)"/>
<circle cx="44" cy="239" r="22" style="fill:rgb(127,0,0)"/>
<circle cx="329" cy="169" r="20" style="fill:rgb(0,0,127)"/>
<circle cx="380" cy="285" r="22" style="fill:rgb(0,0,127)"/>
<circle cx="282" cy="108" r="21" style="fill:rgb(127,0,0)"/>
<circle cx="143" cy="353" r="22" style="fill:rgb(127,0,0)"/>
<circle cx="294" cy="229" r="14" style="fill:rgb(127,0,0)"/>
<circle cx="375" cy="317" r="13" style="fill:rgb(127,0,0)"/>
<circle cx="429" cy="397" r="21" style="fill:rgb(0,0,127)"/>
<circle cx="313" cy="389" r="20" style="fill:rgb(127,0,0)"/>
<circle cx="141" cy="129" r="17" style="fill:rgb(127,0,0)"/>
<circle cx="24" cy="399" r="18" style="fill:rgb(127,0,0)"/>
<circle cx="233" cy="396" r="19" style="fill:rgb(0,0,127)"/>
<circle cx="460" cy="182" r="17" style="fill:rgb(0,0,127)"/>
<circle cx="336" cy="180" r="14" style="fill:rgb(0,0,127)"/>
<circle cx="30" cy="160" r="19" style="fill:rgb(127,0,0)"/>
<circle cx="75" cy="138" r="16" style="fill:rgb(127,0,0)"/>
<circle cx="6" cy="356" r="15" style="fill:rgb(0,0,127)"/>
<circle cx="243" cy="37" r="18" style="fill:rgb(127,0,0)"/>
<circle cx="458" cy="244" r="14" style="fill:rgb(127,0,0)"/>
<circle cx="213" cy="138" r="21" style="fill:rgb(0,0,127)"/>
<circle cx="116" cy="209" r="13" style="fill:rgb(0,0,127)"/>
<circle cx="63" cy="272" r="16" style="fill:rgb(127,0,0)"/>
<circle cx="5" cy="56" r="13" style="fill:rgb(0,0,127)"/>
<circle cx="482" cy="178" r="12" style="fill:rgb(127,0,0)"/>
<circle cx="137" cy="50" r="21" style="fill:rgb(127,0,0)"/>
<circle cx="399" cy="284" r="12" style="fill:rgb(0,0,127)"/>
<circle cx="53" cy="272" r="12" style="fill:rgb(127,0,0)"/>
<circle cx="112" cy="43" r="22" style="fill:rgb(0,0,127)"/>
<circle cx="211" cy="276" r="18" style="fill:rgb(0,0,127)"/>
<circle cx="305" cy="148" r="18" style="fill:rgb(127,0,0)"/>
<circle cx="365" cy="386" r="12" style="fill:rgb(127,0,0)"/>
<circle cx="313" cy="117" r="18" style="fill:rgb(0,0,127)"/>
<circle cx="128" cy="345" r="14" style="fill:rgb(0,0,127)"/>
<circle cx="240" cy="352" r="21" style="fill:rgb(127,0,0)"/>
<circle cx="471" cy="136" r="16" style="fill:rgb(0,0,127)"/>
<circle cx="145" cy="45" r="13" style="fill:rgb(127,0,0)"/>
<circle cx="165" cy="226" r="13" style="fill:rgb(0,0,127)"/>
<circle cx="322" cy="231" r="13" style="fill:rgb(0,0,127)"/>
<circle cx="205" cy="216" r="19" style="fill:rgb(0,0,127)"/>
<circle cx="140" cy="316" r="14" style="fill:rgb(0,0,127)"/>
<circle cx="464" cy="297" r="14" style="fill:rgb(127,0,0)"/>
<circle cx="169" cy="209" r="15" style="fill:rgb(127,0,0)"/>
<circle cx="5" cy="267" r="17" style="fill:rgb(0,0,127)"/>
<circle cx="90" cy="313" r="18" style="fill:rgb(0,0,127)"/>
<circle cx="407" cy="11" r="21" style="fill:rgb(127,0,0)"/>
<circle cx="495" cy="85" r="19" style="fill:rgb(127,0,0)"/>
<circle cx="10" cy="245" r="16" style="fill:rgb(127,0,0)"/>
<circle cx="304" cy="155" r="14" style="fill:rgb(127,0,0)"/>
<circle cx="120" cy="171" r="21" style="fill:rgb(127,0,0)"/>
<circle cx="220" cy="26" r="21" style="fill:rgb(127,0,0)"/>
<circle cx="318" cy="343" r="15" style="fill:rgb(127,0,0)"/>
<circle cx="167" cy="7" r="14" style="fill:rgb(0,0,127)"/>
<circle cx="290" cy="85" r="20" style="fill:rgb(127,0,0)"/>
<circle cx="365" cy="359" r="19" style="fill:rgb(0,0,127)"/>
<circle cx="401" cy="1" r="12" style="fill:rgb(127,0,0)"/>
<circle cx="389" cy="217" r="17" style="fill:rgb(0,0,127)"/>
<circle cx="362" cy="348" r="15" style="fill:rgb(127,0,0)"/>
<circle cx="469" cy="247" r="12" style="fill:rgb(127,0,0)"/>
<circle cx="318" cy="350" r="21" style="fill:rgb(127,0,0)"/>
<circle cx="406" cy="84" r="11" style="fill:rgb(127,0,0)"/>
<circle cx="42" cy="374" r="16" style="fill:rgb(127,0,0)"/>
<circle cx="1" cy="343" r="22" style="fill:rgb(0,0,127)"/>
<circle cx="432" cy="285" r="18" style="fill:rgb(127,0,0)"/>
<circle cx="417" cy="207" r="21" style="fill:rgb(127,0,0)"/>
<circle cx="365" cy="94" r="15" style="fill:rgb(127,0,0)"/>
<circle cx="445" cy="302" r="21" style="fill:rgb(0,0,127)"/>
<circle cx="163" cy="372" r="16" style="fill:rgb(0,0,127)"/>
<circle cx="366" cy="125" r="14" style="fill:rgb(0,0,127)"/>
<circle cx="339" cy="197" r="20" style="fill:rgb(127,0,0)"/>
<circle cx="50" cy="368" r="12" style="fill:rgb(0,0,127)"/>
<circle cx="382" cy="384" r="18" style="fill:rgb(127,0,0)"/>
<circle cx="270" cy="42" r="22" style="fill:rgb(127,0,0)"/>
<line x1="263" y1="197" x2="294" y2="229" style="stroke:green;stroke-width:3px"/>
<line x1="298" y1="8" x2="277" y2="5" style="stroke:green;stroke-width:3px"/>
<line x1="91" y1="5" x2="112" y2="43" style="stroke:green;stroke-width:3px"/>
<line x1="324" y1="228" x2="322" y2="231" style="stroke:green;stroke-width:3px"/>
<line x1="483" y1="52" x2="495" y2="85" style="stroke:green;stroke-width:3px"/>
<line x1="230" y1="147" x2="220" y2="138" style="stroke:green;stroke-width:3px"/>
<line x1="279" y1="107" x2="282" y2="108" style="stroke:green;stroke-width:3px"/>
<line x1="418" y1="229" x2="417" y2="207" style="stroke:green;stroke-width:3px"/>
<line x1="20" y1="235" x2="10" y2="245" style="stroke:green;stroke-width:3px"/>
<line x1="328" y1="355" x2="318" y2="350" style="stroke:green;stroke-width:3px"/>
<line x1="450" y1="94" x2="406" y2="84" style="stroke:green;stroke-width:3px"/>
<line x1="41" y1="160" x2="30" y2="160" style="stroke:green;stroke-width:3px"/>
<line x1="323" y1="189" x2="336" y2="180" style="stroke:green;stroke-width:3px"/>
<line x1="301" y1="168" x2="304" y2="155" style="stroke:green;stroke-width:3px"/>
<line x1="375" y1="311" x2="375" y2="317" style="stroke:green;stroke-width:3px"/>
<line x1="115" y1="164" x2="120" y2="171" style="stroke:green;stroke-width:3px"/>
<line x1="277" y1="5" x2="298" y2="8" style="stroke:green;stroke-width:3px"/>
<line x1="85" y1="241" x2="63" y2="272" style="stroke:green;stroke-width:3px"/>
<line x1="316" y1="85" x2="290" y2="85" style="stroke:green;stroke-width:3px"/>
<line x1="83" y1="303" x2="90" y2="313" style="stroke:green;stroke-width:3px"/>
<line x1="220" y1="138" x2="213" y2="138" style="stroke:green;stroke-width:3px"/>
<line x1="114" y1="188" x2="120" y2="171" style="stroke:green;stroke-width:3px"/>
<line x1="445" y1="383" x2="429" y2="397" style="stroke:green;stroke-width:3px"/>
<line x1="176" y1="186" x2="169" y2="209" style="stroke:green;stroke-width:3px"/>
<line x1="310" y1="113" x2="313" y2="117" style="stroke:green;stroke-width:3px"/>
<line x1="100" y1="171" x2="115" y2="164" style="stroke:green;stroke-width:3px"/>
<line x1="147" y1="249" x2="165" y2="226" style="stroke:green;stroke-width:3px"/>
<line x1="81" y1="200" x2="100" y2="171" style="stroke:green;stroke-width:3px"/>
<line x1="44" y1="239" x2="20" y2="235" style="stroke:green;stroke-width:3px"/>
<line x1="329" y1="169" x2="336" y2="180" style="stroke:green;stroke-width:3px"/>
<line x1="380" y1="285" x2="399" y2="284" style="stroke:green;stroke-width:3px"/>
<line x1="282" y1="108" x2="279" y2="107" style="stroke:green;stroke-width:3px"/>
<line x1="143" y1="353" x2="128" y2="345" style="stroke:green;stroke-width:3px"/>
<line x1="294" y1="229" x2="322" y2="231" style="stroke:green;stroke-width:3px"/>
<line x1="375" y1="317" x2="375" y2="311" style="stroke:green;stroke-width:3px"/>
<line x1="429" y1="397" x2="445" y2="383" style="stroke:green;stroke-width:3px"/>
<line x1="313" y1="389" x2="328" y2="355" style="stroke:green;stroke-width:3px"/>
<line x1="141" y1="129" x2="115" y2="164" style="stroke:green;stroke-width:3px"/>
<line x1="24" y1="399" x2="42" y2="374" style="stroke:green;stroke-width:3px"/>
<line x1="233" y1="396" x2="240" y2="352" style="stroke:green;stroke-width:3px"/>
<line x1="460" y1="182" x2="482" y2="178" style="stroke:green;stroke-width:3px"/>
<line x1="336" y1="180" x2="329" y2="169" style="stroke:green;stroke-width:3px"/>
<line x1="30" y1="160" x2="41" y2="160" style="stroke:green;stroke-width:3px"/>
<line x1="75" y1="138" x2="41" y2="160" style="stroke:green;stroke-width:3px"/>
<line x1="6" y1="356" x2="1" y2="343" style="stroke:green;stroke-width:3px"/>
<line x1="243" y1="37" x2="220" y2="26" style="stroke:green;stroke-width:3px"/>
<line x1="458" y1="244" x2="469" y2="247" style="stroke:green;stroke-width:3px"/>
<line x1="213" y1="138" x2="220" y2="138" style="stroke:green;stroke-width:3px"/>
<line x1="116" y1="209" x2="114" y2="188" style="stroke:green;stroke-width:3px"/>
<line x1="63" y1="272" x2="53" y2="272" style="stroke:green;stroke-width:3px"/>
<line x1="5" y1="56" x2="91" y2="5" style="stroke:green;stroke-width:3px"/>
<line x1="482" y1="178" x2="460" y2="182" style="stroke:green;stroke-width:3px"/>
<line x1="137" y1="50" x2="145" y2="45" style="stroke:green;stroke-width:3px"/>
<line x1="399" y1="284" x2="380" y2="285" style="stroke:green;stroke-width:3px"/>
<line x1="53" y1="272" x2="63" y2="272" style="stroke:green;stroke-width:3px"/>
<line x1="112" y1="43" x2="137" y2="50" style="stroke:green;stroke-width:3px"/>
<line x1="211" y1="276" x2="205" y2="216" style="stroke:red;stroke-width:5px"/>
<line x1="211" y1="276" x2="165" y2="226" style="stroke:orange;stroke-width:5px"/>
<line x1="211" y1="276" x2="165" y2="226" style="stroke:green;stroke-width:3px"/>
<line x1="305" y1="148" x2="304" y2="155" style="stroke:green;stroke-width:3px"/>
<line x1="365" y1="386" x2="382" y2="384" style="stroke:green;stroke-width:3px"/>
<line x1="313" y1="117" x2="310" y2="113" style="stroke:green;stroke-width:3px"/>
<line x1="128" y1="345" x2="143" y2="353" style="stroke:green;stroke-width:3px"/>
<line x1="240" y1="352" x2="233" y2="396" style="stroke:green;stroke-width:3px"/>
<line x1="471" y1="136" x2="482" y2="178" style="stroke:green;stroke-width:3px"/>
<line x1="145" y1="45" x2="137" y2="50" style="stroke:green;stroke-width:3px"/>
<line x1="165" y1="226" x2="169" y2="209" style="stroke:green;stroke-width:3px"/>
<line x1="322" y1="231" x2="324" y2="228" style="stroke:green;stroke-width:3px"/>
<line x1="205" y1="216" x2="169" y2="209" style="stroke:green;stroke-width:3px"/>
<line x1="140" y1="316" x2="128" y2="345" style="stroke:green;stroke-width:3px"/>
<line x1="464" y1="297" x2="445" y2="302" style="stroke:green;stroke-width:3px"/>
<line x1="169" y1="209" x2="165" y2="226" style="stroke:green;stroke-width:3px"/>
<line x1="5" y1="267" x2="10" y2="245" style="stroke:green;stroke-width:3px"/>
<line x1="90" y1="313" x2="83" y2="303" style="stroke:green;stroke-width:3px"/>
<line x1="407" y1="11" x2="401" y2="1" style="stroke:green;stroke-width:3px"/>
<line x1="495" y1="85" x2="483" y2="52" style="stroke:green;stroke-width:3px"/>
<line x1="10" y1="245" x2="20" y2="235" style="stroke:green;stroke-width:3px"/>
<line x1="304" y1="155" x2="305" y2="148" style="stroke:green;stroke-width:3px"/>
<line x1="120" y1="171" x2="115" y2="164" style="stroke:green;stroke-width:3px"/>
<line x1="220" y1="26" x2="243" y2="37" style="stroke:green;stroke-width:3px"/>
<line x1="318" y1="343" x2="318" y2="350" style="stroke:green;stroke-width:3px"/>
<line x1="167" y1="7" x2="145" y2="45" style="stroke:green;stroke-width:3px"/>
<line x1="290" y1="85" x2="279" y2="107" style="stroke:green;stroke-width:3px"/>
<line x1="365" y1="359" x2="362" y2="348" style="stroke:green;stroke-width:3px"/>
<line x1="401" y1="1" x2="407" y2="11" style="stroke:green;stroke-width:3px"/>
<line x1="389" y1="217" x2="417" y2="207" style="stroke:green;stroke-width:3px"/>
<line x1="362" y1="348" x2="365" y2="359" style="stroke:green;stroke-width:3px"/>
<line x1="469" y1="247" x2="458" y2="244" style="stroke:green;stroke-width:3px"/>
<line x1="318" y1="350" x2="318" y2="343" style="stroke:green;stroke-width:3px"/>
<line x1="406" y1="84" x2="365" y2="94" style="stroke:green;stroke-width:3px"/>
<line x1="42" y1="374" x2="50" y2="368" style="stroke:green;stroke-width:3px"/>
<line x1="1" y1="343" x2="6" y2="356" style="stroke:green;stroke-width:3px"/>
<line x1="432" y1="285" x2="445" y2="302" style="stroke:green;stroke-width:3px"/>
<line x1="417" y1="207" x2="418" y2="229" style="stroke:green;stroke-width:3px"/>
<line x1="365" y1="94" x2="366" y2="125" style="stroke:green;stroke-width:3px"/>
<line x1="445" y1="302" x2="464" y2="297" style="stroke:green;stroke-width:3px"/>
<line x1="163" y1="372" x2="143" y2="353" style="stroke:green;stroke-width:3px"/>
<line x1="366" y1="125" x2="365" y2="94" style="stroke:green;stroke-width:3px"/>
<line x1="339" y1="197" x2="336" y2="180" style="stroke:green;stroke-width:3px"/>
<line x1="50" y1="368" x2="42" y2="374" style="stroke:green;stroke-width:3px"/>
<line x1="382" y1="384" x2="365" y2="386" style="stroke:green;stroke-width:3px"/>
<line x1="270" y1="42" x2="243" y2="37" style="stroke:green;stroke-width:3px"/>
<rect x="0" y="0" width="45" height="36" style="fill:rgba(0,0,0,0.000000)"/>
<rect x="0" y="36" width="45" height="36" style="fill:rgba(0,0,0,0.100000)"/>
<rect x="0" y="72" width="45" height="36" style="fill:rgba(0,0,0,0.000000)"/>
<rect x="0" y="109" width="45" height="36" style="fill:rgba(0,0,0,0.000000)"/>
<rect x="0" y="145" width="45" height="36" style="fill:rgba(0,0,0,0.200000)"/>
<rect x="0" y="181" width="45" height="36" style="fill:rgba(0,0,0,0.000000)"/>
<rect x="0" y="218" width="45" height="36" style="fill:rgba(0,0,0,0.300000)"/>
<rect x="0" y="254" width="45" height="36" style="fill:rgba(0,0,0,0.100000)"/>
<rect x="0" y="290" width="45" height="36" style="fill:rgba(0,0,0,0.000000)"/>
<rect x="0" y="327" width="45" height="36" style="fill:rgba(0,0,0,0.200000)"/>
<rect x="0" y="363" width="45" height="36" style="fill:rgba(0,0,0,0.200000)"/>
<rect x="45" y="0" width="45" height="36" style="fill:rgba(0,0,0,0.000000)"/>
<rect x="45" y="36" width="45" height="36" style="fill:rgba(0,0,0,0.000000)"/>
<rect x="45" y="72" width="45" height="36" style="fill:rgba(0,0,0,0.000000)"/>
<rect x="45" y="109" width="45" height="36" style="fill:rgba(0,0,0,0.100000)"/>
<rect x="45" y="145" width="45" height="36" style="fill:rgba(0,0,0,0.000000)"/>
<rect x="45" y="181" width="45" height="36" style="fill:rgba(0,0,0,0.100000)"/>
<rect x="45" y="218" width="45" height="36" style="fill:rgba(0,0,0,0.100000)"/>
<rect x="45" y="254" width="45" height="36" style="fill:rgba(0,0,0,0.200000)"/>
<rect x="45" y="290" width="45" height="36" style="fill:rgba(0,0,0,0.200000)"/>
<rect x="45" y="327" width="45" height="36" style="fill:rgba(0,0,0,0.000000)"/>
<rect x="45" y="363" width="45" height="36" style="fill:rgba(0,0,0,0.100000)"/>
<rect x="90" y="0" width="45" height="36" style="fill:rgba(0,0,0,0.100000)"/>
<rect x="90" y="36" width="45" height="36" style="fill:rgba(0,0,0,0.100000)"/>
<rect x="90" y="72" width="45" height="36" style="fill:rgba(0,0,0,0.000000)"/>
<rect x="90" y="109" width="45" height="36" style="fill:rgba(0,0,0,0.000000)"/>
<rect x="90" y="145" width="45" height="36" style="fill:rgba(0,0,0,0.300000)"/>
<rect x="90" y="181" width="45" height="36" style="fill:rgba(0,0,0,0.200000)"/>
<rect x="90" y="218" width="45" height="36" style="fill:rgba(0,0,0,0.000000)"/>
<rect x="90" y="254" width="45" height="36" style="fill:rgba(0,0,0,0.000000)"/>
<rect x="90" y="290" width="45" height="36" style="fill:rgba(0,0,0,0.000000)"/>
<rect x="90" y="327" width="45" height="36" style="fill:rgba(0,0,0,0.100000)"/>
<rect x="90" y="363" width="45" height="36" style="fill:rgba(0,0,0,0.000000)"/>
<rect x="136" y="0" width="45" height="36" style="fill:rgba(0,0,0,0.100000)"/>
<rect x="136" y="36" width="45" height="36" style="fill:rgba(0,0,0,0.200000)"/>
<rect x="136" y="72" width="45" height="36" style="fill:rgba(0,0,0,0.000000)"/>
<rect x="136" y="109" width="45" height="36" style="fill:rgba(0,0,0,0.100000)"/>
<rect x="136" y="145" width="45" height="36" style="fill:rgba(0,0,0,0.000000)"/>
<rect x="136" y="181" width="45" height="36" style="fill:rgba(0,0,0,0.200000)"/>
<rect x="136" y="218" width="45" height="36" style="fill:rgba(0,0,0,0.200000)"/>
<rect x="136" y="254" width="45" height="36" style="fill:rgba(0,0,0,0.000000)"/>
<rect x="136" y="290" width="45" height="36" style="fill:rgba(0,0,0,0.100000)"/>
<rect x="136" y="327" width="45" height="36" style="fill:rgba(0,0,0,0.100000)"/>
<rect x="136" y="363" width="45" height="36" style="fill:rgba(0,0,0,0.100000)"/>
<rect x="181" y="0" width="45" height="36" style="fill:rgba(0,0,0,0.100000)"/>
<rect x="181" y="36" width="45" height="36" style="fill:rgba(0,0,0,0.000000)"/>
<rect x="181" y="72" width="45" height="36" style="fill:rgba(0,0,0,0.000000)"/>
<rect x="181" y="109" width="45" height="36" style="fill:rgba(0,0,0,0.200000)"/>
<rect x="181" y="145" width="45" height="36" style="fill:rgba(0,0,0,0.000000)"/>
<rect x="181" y="181" width="45" height="36" style="fill:rgba(0,0,0,0.100000)"/>
<rect x="181" y="218" width="45" height="36" style="fill:rgba(0,0,0,0.000000)"/>
<rect x="181" y="254" width="45" height="36" style="fill:rgba(0,0,0,0.100000)"/>
<rect x="181" y="290" width="45" height="36" style="fill:rgba(0,0,0,0.000000)"/>
<rect x="181" y="327" width="45" height="36" style="fill:rgba(0,0,0,0.000000)"/>
<rect x="181" y="363" width="45" height="36" style="fill:rgba(0,0,0,0.000000)"/>
<rect x="227" y="0" width="45" height="36" style="fill:rgba(0,0,0,0.000000)"/>
<rect x="227" y="36" width="45" height="36" style="fill:rgba(0,0,0,0.200000)"/>
<rect x="227" y="72" width="45" height="36" style="fill:rgba(0,0,0,0.000000)"/>
<rect x="227" y="109" width="45" height="36" style="fill:rgba(0,0,0,0.000000)"/>
<rect x="227" y="145" width="45" height="36" style="fill:rgba(0,0,0,0.100000)"/>
<rect x="227" y="181" width="45" height="36" style="fill:rgba(0,0,0,0.100000)"/>
<rect x="227" y="218" width="45" height="36" style="fill:rgba(0,0,0,0.000000)"/>
<rect x="227" y="254" width="45" height="36" style="fill:rgba(0,0,0,0.000000)"/>
<rect x="227" y="290" width="45" height="36" style="fill:rgba(0,0,0,0.000000)"/>
<rect x="227" y="327" width="45" height="36" style="fill:rgba(0,0,0,0.100000)"/>
<rect x="227" y="363" width="45" height="36" style="fill:rgba(0,0,0,0.100000)"/>
<rect x="272" y="0" width="45" height="36" style="fill:rgba(0,0,0,0.200000)"/>
<rect x="272" y="36" width="45" height="36" style="fill:rgba(0,0,0,0.000000)"/>
<rect x="272" y="72" width="45" height="36" style="fill:rgba(0,0,0,0.400000)"/>
<rect x="272" y="109" width="45" height="36" style="fill:rgba(0,0,0,0.200000)"/>
<rect x="272" y="145" width="45" height="36" style="fill:rgba(0,0,0,0.300000)"/>
<rect x="272" y="181" width="45" height="36" style="fill:rgba(0,0,0,0.000000)"/>
<rect x="272" y="218" width="45" height="36" style="fill:rgba(0,0,0,0.100000)"/>
<rect x="272" y="254" width="45" height="36" style="fill:rgba(0,0,0,0.000000)"/>
<rect x="272" y="290" width="45" height="36" style="fill:rgba(0,0,0,0.000000)"/>
<rect x="272" y="327" width="45" height="36" style="fill:rgba(0,0,0,0.000000)"/>
<rect x="272" y="363" width="45" height="36" style="fill:rgba(0,0,0,0.100000)"/>
<rect x="318" y="0" width="45" height="36" style="fill:rgba(0,0,0,0.000000)"/>
<rect x="318" y="36" width="45" height="36" style="fill:rgba(0,0,0,0.000000)"/>
<rect x="318" y="72" width="45" height="36" style="fill:rgba(0,0,0,0.000000)"/>
<rect x="318" y="109" width="45" height="36" style="fill:rgba(0,0,0,0.000000)"/>
<rect x="318" y="145" width="45" height="36" style="fill:rgba(0,0,0,0.200000)"/>
<rect x="318" y="181" width="45" height="36" style="fill:rgba(0,0,0,0.200000)"/>
<rect x="318" y="218" width="45" height="36" style="fill:rgba(0,0,0,0.200000)"/>
<rect x="318" y="254" width="45" height="36" style="fill:rgba(0,0,0,0.000000)"/>
<rect x="318" y="290" width="45" height="36" style="fill:rgba(0,0,0,0.000000)"/>
<rect x="318" y="327" width="45" height="36" style="fill:rgba(0,0,0,0.400000)"/>
<rect x="318" y="363" width="45" height="36" style="fill:rgba(0,0,0,0.000000)"/>
<rect x="363" y="0" width="45" height="36" style="fill:rgba(0,0,0,0.200000)"/>
<rect x="363" y="36" width="45" height="36" style="fill:rgba(0,0,0,0.000000)"/>
<rect x="363" y="72" width="45" height="36" style="fill:rgba(0,0,0,0.200000)"/>
<rect x="363" y="109" width="45" height="36" style="fill:rgba(0,0,0,0.100000)"/>
<rect x="363" y="145" width="45" height="36" style="fill:rgba(0,0,0,0.000000)"/>
<rect x="363" y="181" width="45" height="36" style="fill:rgba(0,0,0,0.100000)"/>
<rect x="363" y="218" width="45" height="36" style="fill:rgba(0,0,0,0.000000)"/>
<rect x="363" y="254" width="45" height="36" style="fill:rgba(0,0,0,0.200000)"/>
<rect x="363" y="290" width="45" height="36" style="fill:rgba(0,0,0,0.200000)"/>
<rect x="363" y="327" width="45" height="36" style="fill:rgba(0,0,0,0.100000)"/>
<rect x="363" y="363" width="45" height="36" style="fill:rgba(0,0,0,0.200000)"/>
<rect x="409" y="0" width="45" height="36" style="fill:rgba(0,0,0,0.000000)"/>
<rect x="409" y="36" width="45" height="36" style="fill:rgba(0,0,0,0.000000)"/>
<rect x="409" y="72" width="45" height="36" style="fill:rgba(0,0,0,0.100000)"/>
<rect x="409" y="109" width="45" height="36" style="fill:rgba(0,0,0,0.000000)"/>
<rect x="409" y="145" width="45" height="36" style="fill:rgba(0,0,0,0.000000)"/>
<rect x="409" y="181" width="45" height="36" style="fill:rgba(0,0,0,0.100000)"/>
<rect x="409" y="218" width="45" height="36" style="fill:rgba(0,0,0,0.100000)"/>
<rect x="409" y="254" width="45" height="36" style="fill:rgba(0,0,0,0.100000)"/>
<rect x="409" y="290" width="45" height="36" style="fill:rgba(0,0,0,0.100000)"/>
<rect x="409" y="327" width="45" height="36" style="fill:rgba(0,0,0,0.000000)"/>
<rect x="409" y="363" width="45" height="36" style="fill:rgba(0,0,0,0.200000)"/>
<rect x="454" y="0" width="45" height="36" style="fill:rgba(0,0,0,0.000000)"/>
<rect x="454" y="36" width="45" height="36" style="fill:rgba(0,0,0,0.100000)"/>
<rect x="454" y="72" width="45" height="36" style="fill:rgba(0,0,0,0.100000)"/>
<rect x="454" y="109" width="45" height="36" style="fill:rgba(0,0,0,0.100000)"/>
<rect x="454" y="145" width="45" height="36" style="fill:rgba(0,0,0,0.100000)"/>
<rect x="454" y="181" width="45" height="36" style="fill:rgba(0,0,0,0.100000)"/>
<rect x="454" y="218" width="45" height="36" style="fill:rgba(0,0,0,0.200000)"/>
<rect x="454" y="254" width="45" height="36" style="fill:rgba(0,0,0,0.000000)"/>
<rect x="454" y="290" width="45" height="36" style="fill:rgba(0,0,0,0.100000)"/>
<rect x="454" y="327" width="45" height="36" style="fill:rgba(0,0,0,0.000000)"/>
<rect x="454" y="363" width="45" height="36" style="fill:rgba(0,0,0,0.000000)"/>
<g style="stroke:rgba(100,100,100,0.5)">
<line x1="0" y1="0" x2="0" y2="400" />
<line x1="45" y1="0" x2="45" y2="400" />
<line x1="90" y1="0" x2="90" y2="400" />
<line x1="136" y1="0" x2="136" y2="400" />
<line x1="181" y1="0" x2="181" y2="400" />
<line x1="227" y1="0" x2="227" y2="400" />
<line x1="272" y1="0" x2="272" y2="400" />
<line x1="318" y1="0" x2="318" y2="400" />
<line x1="363" y1="0" x2="363" y2="400" />
<line x1="409" y1="0" x2="409" y2="400" />
<line x1="454" y1="0" x2="454" y2="400" />
<line x1="499" y1="0" x2="499" y2="400" />
<line x1="0" y1="0" x2="500" y2="0" />
<line x1="0" y1="36" x2="500" y2="36" />
<line x1="0" y1="72" x2="500" y2="72" />
<line x1="0" y1="109" x2="500" y2="109" />
<line x1="0" y1="145" x2="500" y2="145" />
<line x1="0" y1="181" x2="500" y2="181" />
<line x1="0" y1="218" x2="500" y2="218" />
<line x1="0" y1="254" x2="500" y2="254" />
<line x1="0" y1="290" x2="500" y2="290" />
<line x1="0" y1="327" x2="500" y2="327" />
<line x1="0" y1="363" x2="500" y2="363" />
</g>
</svg>
